<?xml version="1.0" encoding="utf-8"?>
<!-- Generator: Adobe Illustrator 19.0.0, SVG Export Plug-In . SVG Version: 6.00 Build 0)  -->
<svg version="1.1" id="Layer_1" xmlns="http://www.w3.org/2000/svg" xmlns:xlink="http://www.w3.org/1999/xlink" x="0px" y="0px"
	 viewBox="0 0 84 84" style="enable-background:new 0 0 84 84;" xml:space="preserve">
<style type="text/css">
	.st0{fill:#FFFFFF;}
</style>
<path id="XMLID_5_" class="st0" d="M42,2c22.1,0,40,17.9,40,40S64.1,82,42,82S2,64.1,2,42c0-7.5,2.1-14.9,6.1-21.2
	C15.5,9,28.1,2,42,2 M42,0C27,0,13.8,7.9,6.4,19.7C2.3,26.2,0,33.8,0,42c0,23.2,18.8,42,42,42s42-18.8,42-42S65.2,0,42,0L42,0z"/>
<g id="XMLID_3_">
	<path id="XMLID_7_" class="st0" d="M56.4,18.4H44.9L18.4,44.8l20.8,20.8l26.5-26.4V27.6L56.4,18.4z M63.9,38.5L39.1,63.2L20.9,44.8
		l24.8-24.7h10.1l8.2,8.2V38.5z"/>
	<path id="XMLID_4_" class="st0" d="M51.6,28.9c0,1.9,1.6,3.5,3.5,3.5c1.9,0,3.5-1.6,3.5-3.5c0-1.9-1.6-3.5-3.5-3.5
		C53.2,25.4,51.6,26.9,51.6,28.9z"/>
</g>
</svg>
