<?xml version="1.0" encoding="utf-8"?>
<!-- Generator: Adobe Illustrator 19.0.0, SVG Export Plug-In . SVG Version: 6.00 Build 0)  -->
<svg version="1.1" id="Layer_1" xmlns="http://www.w3.org/2000/svg" xmlns:xlink="http://www.w3.org/1999/xlink" x="0px" y="0px"
	 viewBox="0 0 84 84" style="enable-background:new 0 0 84 84;" xml:space="preserve">
<style type="text/css">
	.st0{fill:#FFFFFF;}
</style>
<g id="XMLID_12_">
	<path id="XMLID_15_" class="st0" d="M84,42c0,23.2-18.8,42-42,42S0,65.2,0,42c0-8.2,2.3-15.8,6.4-22.3C13.8,7.9,27,0,42,0
		C65.2,0,84,18.8,84,42z"/>
	<path id="XMLID_11_" class="st0" d="M42,2c22.1,0,40,17.9,40,40S64.1,82,42,82S2,64.1,2,42c0-7.5,2.1-14.9,6.1-21.2
		C15.5,9,28.1,2,42,2 M42,0C27,0,13.8,7.9,6.4,19.7C2.3,26.2,0,33.8,0,42c0,23.2,18.8,42,42,42s42-18.8,42-42S65.2,0,42,0L42,0z"/>
</g>
<g id="XMLID_3_">
	<path id="XMLID_8_" class="st0" d="M58.6,63V21H25.4v42 M27.1,61.3V22.8h29.8v38.5"/>
	<rect id="XMLID_7_" x="33.2" y="30.6" class="st0" width="17.5" height="1.8"/>
	<rect id="XMLID_6_" x="33.2" y="37.6" class="st0" width="17.5" height="1.8"/>
	<rect id="XMLID_5_" x="33.2" y="44.6" class="st0" width="17.5" height="1.8"/>
	<rect id="XMLID_4_" x="33.2" y="51.6" class="st0" width="17.5" height="1.8"/>
</g>
</svg>
