<?xml version="1.0" encoding="utf-8"?>
<!-- Generator: Adobe Illustrator 19.0.0, SVG Export Plug-In . SVG Version: 6.00 Build 0)  -->
<svg version="1.1" id="Layer_1" xmlns="http://www.w3.org/2000/svg" xmlns:xlink="http://www.w3.org/1999/xlink" x="0px" y="0px"
	 viewBox="-7 9 24 24" style="enable-background:new -7 9 24 24;" xml:space="preserve">
<style type="text/css">
	.st0{fill:#FFFFFF;}
	.st1{fill:#C9C9C9;}
	.st2{fill:#E96656;}
</style>
<g>
	<rect id="rect-1" x="-7" y="9" class="st0" width="24" height="24"/>
</g>
<g>
	<g id="rect-1_1_">
		<path class="st1" d="M16,10v22H-6V10H16 M17,9H-7v24h24V9L17,9z"/>
	</g>
</g>
<path class="st2" d="M11.3,18l-7.7,7.9c-0.1,0.2-0.4,0.2-0.6,0l-0.2-0.2l0,0l-0.2-0.2L2,24.7l0,0l-3.3-3.4c-0.2-0.2-0.2-0.5,0-0.7
	l1-1.1c0.2-0.2,0.5-0.2,0.7,0l3,3.1l6.3-6.5c0.2-0.2,0.5-0.2,0.7,0l1,1.1C11.5,17.5,11.5,17.8,11.3,18z"/>
</svg>
