<?xml version="1.0" encoding="utf-8"?>
<!-- Generator: Adobe Illustrator 19.0.0, SVG Export Plug-In . SVG Version: 6.00 Build 0)  -->
<svg version="1.1" id="Layer_1" xmlns="http://www.w3.org/2000/svg" xmlns:xlink="http://www.w3.org/1999/xlink" x="0px" y="0px"
	 viewBox="0 0 36 36" style="enable-background:new 0 0 36 36;" xml:space="preserve">
<style type="text/css">
	.st0{fill:#FFFFFF;}
</style>
<g>
	<path class="st0" d="M18,0C8.1,0,0,8.1,0,18c0,9.9,8.1,18,18,18s18-8.1,18-18C36,8.1,27.9,0,18,0z M18,34.6
		C8.9,34.6,1.4,27.1,1.4,18C1.4,8.9,8.9,1.4,18,1.4S34.6,8.9,34.6,18C34.6,27.1,27.1,34.6,18,34.6z"/>
	<path id="XMLID_2_" class="st0" d="M17.9,8.6c-3.7,0-5.7,2.3-5.7,5.8h1.6c0-2.6,1.3-4.5,4.1-4.5c2,0,3.6,1.4,3.6,3.4
		c0,1.3-0.7,2.4-1.6,3.3c-1.9,1.8-2.5,2.6-2.5,5h1.6c0.1-2.2,0-2.2,2-4.1c1.3-1.2,2.2-2.4,2.2-4.3C23.1,10.3,20.7,8.6,17.9,8.6z"/>
	<circle id="XMLID_1_" class="st0" cx="18" cy="25.9" r="1.4"/>
</g>
</svg>
