<?xml version="1.0" encoding="utf-8"?>
<!-- Generator: Adobe Illustrator 19.0.0, SVG Export Plug-In . SVG Version: 6.00 Build 0)  -->
<svg version="1.1" id="Layer_1" xmlns="http://www.w3.org/2000/svg" xmlns:xlink="http://www.w3.org/1999/xlink" x="0px" y="0px"
	 viewBox="0 0 36 36" style="enable-background:new 0 0 36 36;" xml:space="preserve">
<style type="text/css">
	.st0{fill:#FFFFFF;}
</style>
<g>
	<path class="st0" d="M18,7.2C11.4,7.2,6.3,11.3,0,18c5.4,5.7,10,10.8,18,10.8s13.9-6.4,18-10.7C31.8,13.2,25.9,7.2,18,7.2z
		 M18,27.6c-7.1,0-11.4-4.4-16.3-9.6C7.5,11.9,12.1,8.4,18,8.4c6.9,0,12.4,5,16.4,9.7C30.4,22.2,25.1,27.6,18,27.6z"/>
	<path class="st0" d="M18,10.8c-4,0-7.2,3.2-7.2,7.2s3.2,7.2,7.2,7.2s7.2-3.2,7.2-7.2S22,10.8,18,10.8z M18,24c-3.3,0-6-2.7-6-6
		c0-3.3,2.7-6,6-6s6,2.7,6,6C24,21.3,21.3,24,18,24z"/>
	<path class="st0" d="M18,13.8c-2.3,0-4.2,1.9-4.2,4.2c0,2.3,1.9,4.2,4.2,4.2c2.3,0,4.2-1.9,4.2-4.2C22.2,15.7,20.3,13.8,18,13.8z
		 M18,21c-1.7,0-3-1.3-3-3c0-1.7,1.3-3,3-3s3,1.3,3,3C21,19.7,19.7,21,18,21z"/>
</g>
</svg>
