<?xml version="1.0" encoding="utf-8"?>
<!-- Generator: Adobe Illustrator 19.0.0, SVG Export Plug-In . SVG Version: 6.00 Build 0)  -->
<svg version="1.1" id="Layer_1" xmlns="http://www.w3.org/2000/svg" xmlns:xlink="http://www.w3.org/1999/xlink" x="0px" y="0px"
	 viewBox="0 0 36 36" style="enable-background:new 0 0 36 36;" xml:space="preserve">
<style type="text/css">
	.st0{fill:#FFFFFF;}
</style>
<path class="st0" d="M18,0C8.1,0,0,8.1,0,18c0,9.9,8.1,18,18,18s18-8.1,18-18C36,8.1,27.9,0,18,0z M18,1.5c9.1,0,16.5,7.4,16.5,16.5
	c0,4-1.4,7.7-3.8,10.5c-1.6-0.7-5.5-2-7.9-2.7c-0.2-0.1-0.2-0.1-0.2-0.9c0-0.7,0.3-1.4,0.6-2c0.3-0.7,0.7-1.7,0.8-2.7
	c0.4-0.4,0.9-1.3,1.2-2.8c0.3-1.4,0.1-1.9,0-2.4c0-0.1,0-0.1-0.1-0.2c-0.1-0.3,0-2,0.3-3.4c0.2-0.9,0-2.8-1.3-4.4
	c-0.8-1-2.3-2.3-5.1-2.4l-1.5,0c-2.7,0.2-4.2,1.4-5,2.4c-1.3,1.6-1.5,3.5-1.3,4.4c0.2,1.3,0.3,3,0.3,3.4c0,0.1,0,0.1-0.1,0.2
	c-0.2,0.5-0.3,1,0,2.4c0.3,1.6,0.8,2.4,1.2,2.8c0.1,1,0.5,2.1,0.8,2.7c0.2,0.5,0.3,1.1,0.3,2c0,0.9,0,0.9-0.2,0.9
	c-2.5,0.7-6.4,2.2-7.9,2.8C3,25.8,1.5,22,1.5,18C1.5,8.9,8.9,1.5,18,1.5z M6.5,29.8c1.7-0.7,5.1-1.9,7.3-2.5
	c1.3-0.4,1.3-1.5,1.3-2.4c0-0.7,0-1.8-0.5-2.7c-0.3-0.6-0.6-1.7-0.7-2.5c0-0.2-0.1-0.4-0.3-0.5C13.4,19,13,18.3,12.7,17
	c-0.2-1.1-0.1-1.3,0-1.6c0-0.1,0.1-0.2,0.1-0.3c0.2-0.7,0-2.8-0.2-4c-0.1-0.5,0-2,1-3.3c0.9-1.1,2.2-1.7,3.9-1.8l1.4,0
	c1.7,0.1,3.1,0.7,3.9,1.9c1,1.2,1.1,2.7,1,3.3c-0.2,1.2-0.4,3.4-0.2,4c0,0.1,0.1,0.2,0.1,0.3c0.1,0.2,0.2,0.5,0,1.6
	c-0.3,1.4-0.7,2.1-0.9,2.2c-0.1,0.1-0.2,0.3-0.3,0.5c-0.1,0.8-0.4,1.9-0.7,2.5c-0.3,0.7-0.7,1.6-0.7,2.7c0,0.9,0,2,1.3,2.4
	c2.1,0.6,5.5,1.8,7.3,2.5c-3,3-7.1,4.8-11.6,4.8C13.5,34.5,9.5,32.7,6.5,29.8z"/>
</svg>
