<?xml version="1.0" encoding="utf-8"?>
<!-- Generator: Adobe Illustrator 19.0.0, SVG Export Plug-In . SVG Version: 6.00 Build 0)  -->
<svg version="1.1" id="Layer_1" xmlns="http://www.w3.org/2000/svg" xmlns:xlink="http://www.w3.org/1999/xlink" x="0px" y="0px"
	 viewBox="0 0 36 36" style="enable-background:new 0 0 36 36;" xml:space="preserve">
<style type="text/css">
	.st0{fill:#FFFFFF;}
</style>
<g>
	<path class="st0" d="M33,2.3H3c-1.7,0-3,1.3-3,3v19.5c0,1.7,1.3,3,3,3h21.1l5.9,5.9v-5.9h3c1.7,0,3-1.3,3-3V5.3
		C36,3.6,34.7,2.3,33,2.3z M34.5,24.8c0,0.8-0.7,1.5-1.5,1.5h-3h-1.5v1.5v2.3l-3.4-3.4l-0.4-0.4h-0.6H3c-0.8,0-1.5-0.7-1.5-1.5V5.3
		c0-0.8,0.7-1.5,1.5-1.5h30c0.8,0,1.5,0.7,1.5,1.5V24.8z"/>
	<circle id="XMLID_3_" class="st0" cx="18" cy="15" r="1.5"/>
	<circle id="XMLID_2_" class="st0" cx="24" cy="15" r="1.5"/>
	<circle id="XMLID_1_" class="st0" cx="12.1" cy="15" r="1.5"/>
</g>
</svg>
