<?xml version="1.0" encoding="utf-8"?>
<!-- Generator: Adobe Illustrator 19.0.0, SVG Export Plug-In . SVG Version: 6.00 Build 0)  -->
<svg version="1.1" id="Layer_1" xmlns="http://www.w3.org/2000/svg" xmlns:xlink="http://www.w3.org/1999/xlink" x="0px" y="0px"
	 viewBox="0 0 40 40" style="enable-background:new 0 0 40 40;" xml:space="preserve">
<style type="text/css">
	.st0{fill:#FFFFFF;}
</style>
<path class="st0" d="M40,19.5c0-1.9-1.5-3.3-3.5-3.3h-5.2l0,0H24c0.8-1.9,2.2-5.7,2.2-9.8c0-4.6-2.3-5.5-4.2-5.5
	c-1.2,0-2.9,0.9-2.9,2.5c0,0.7-0.1,6.8-3.9,10c-4,3.4-5.1,4.2-7.3,4.2c-2.6,0-7.1,0.1-7.1,0.1l-0.8,0v17.9h8.4
	c0.5,0,2.2,0.7,3.6,1.4c2.4,1.1,5.1,2.3,6.9,2.3H31v0c2,0,3.6-1.5,3.6-3.5c0-0.8-0.3-1.5-0.7-2.1c1.4-0.4,2.5-1.7,2.5-3.3
	c0-0.8-0.3-1.5-0.7-2.1c1.4-0.5,2.5-1.8,2.5-3.3c0-0.8-0.3-1.5-0.7-2.1C38.9,22.5,40,21.1,40,19.5z M36.5,21.4h-2h-0.7v1.5h0.7
	c1.1,0,2,0.9,2,2c0,1.1-0.9,2-2,2h-1.7h-0.6v1.5h0.6c1.1,0,1.9,0.9,1.9,1.9c0,1.1-0.9,1.9-1.9,1.9H31h-0.2v1.5H31c1.1,0,2,0.9,2,1.9
	c0,1.1-0.9,1.9-2,1.9h-2v0H18.9c-1.5,0-4.1-1.2-6.3-2.1C10.5,34.6,9.2,34,8.4,34H1.5V19.2c1.4,0,4.4,0,6.3,0c2.8,0,4.3-1.3,8.3-4.6
	c4.2-3.5,4.4-9.9,4.4-11.2c0-0.6,1-1,1.4-1c0.8,0,2.7,0,2.7,4c0,5.1-2.6,10.1-2.6,10.2l-0.6,1.1h5h3.2H31c0,0,0,0,0,0h5.5
	c1.1,0,1.9,0.8,1.9,1.8C38.5,20.5,37.6,21.4,36.5,21.4z"/>
</svg>
