<?xml version="1.0" encoding="utf-8"?>
<!-- Generator: Adobe Illustrator 19.0.0, SVG Export Plug-In . SVG Version: 6.00 Build 0)  -->
<svg version="1.1" id="Layer_1" xmlns="http://www.w3.org/2000/svg" xmlns:xlink="http://www.w3.org/1999/xlink" x="0px" y="0px"
	 viewBox="0 0 36 36" style="enable-background:new 0 0 36 36;" xml:space="preserve">
<style type="text/css">
	.st0{fill:#FFFFFF;}
</style>
<path id="XMLID_6_" class="st0" d="M33,26.4l-3.1-2.6c-3.8-3.2-8.8-3.7-11.4-3.7l-1.7,0v6.2L3.7,17.4l13.2-8.9l0,5.1h0.6
	c6.5,0,11.7,3.4,14.1,9.1L33,26.4z M7.2,17.4l7.6,5.1v-4.4l3.7,0c2.1,0,5.6,0.3,9,1.9c-2.4-2.8-5.9-4.4-10.2-4.4l-0.2,0l0,0h-2.3
	v-3.3L7.2,17.4z"/>
<g>
	<path class="st0" d="M18,0C8.1,0,0,8.1,0,18c0,9.9,8.1,18,18,18c9.9,0,18-8.1,18-18C36,8.1,27.9,0,18,0z M18,34.6
		C8.9,34.6,1.4,27.1,1.4,18C1.4,8.9,8.9,1.4,18,1.4c9.1,0,16.6,7.4,16.6,16.6C34.6,27.1,27.1,34.6,18,34.6z"/>
</g>
</svg>
