<?xml version="1.0" encoding="utf-8"?>
<!-- Generator: Adobe Illustrator 19.0.0, SVG Export Plug-In . SVG Version: 6.00 Build 0)  -->
<svg version="1.1" id="Layer_1" xmlns="http://www.w3.org/2000/svg" xmlns:xlink="http://www.w3.org/1999/xlink" x="0px" y="0px"
	 viewBox="0 0 84 84" style="enable-background:new 0 0 84 84;" xml:space="preserve">
<style type="text/css">
	.st0{fill:#FFFFFF;}
</style>
<path id="XMLID_5_" class="st0" d="M42,1.8c22.2,0,40.3,18.1,40.3,40.3S64.2,82.3,42,82.3S1.8,64.2,1.8,42c0-7.6,2.1-15,6.1-21.4
	C15.3,8.8,28.1,1.8,42,1.8 M42,0C27,0,13.8,7.9,6.4,19.7C2.3,26.2,0,33.8,0,42c0,23.2,18.8,42,42,42s42-18.8,42-42S65.2,0,42,0L42,0
	z"/>
<g id="XMLID_2_">
	<path id="XMLID_76_" class="st0" d="M23.1,43.7c0-6.2,0-12.4,0-18.7c0-2.7,1.8-4.5,4.5-4.5c2.1,0,4.2,0,6.4,0
		c0.3,0,0.6-0.1,0.8-0.3c4.1-4.1,10.4-4.1,14.4,0c0.2,0.2,0.5,0.3,0.8,0.3c2.1,0,4.3,0,6.4,0c2.7,0,4.5,1.8,4.5,4.5
		c0,12.6,0,25.1,0,37.7c0,2.3-1.9,4.2-4.3,4.2c-6.9,0-13.7,0-20.6,0c-2.9,0-5.7,0-8.6,0c-2.2,0-4-1.4-4.3-3.6c-0.1-0.5,0-1,0-1.5
		C23.1,55.7,23.1,49.7,23.1,43.7z M33.1,22.4c-0.1,0-0.1,0-0.2,0c-1.8,0-3.5,0.1-5.3,0c-1.6-0.1-2.9,0.9-2.9,2.8
		c0.1,4.1,0,8.1,0,12.2c0,8.4,0,16.8,0,25.2c0,1.5,1,2.5,2.4,2.5c9.8,0,19.6,0,29.5,0c1.1,0,2.1-0.7,2.3-1.8
		c0.1-0.4,0.1-0.9,0.1-1.4c0-8.7,0-17.5,0-26.2c0-3.6,0-7.2,0-10.9c0-1.4-0.9-2.5-2.2-2.5c-2-0.1-4.1,0-6.2,0
		c1.2,2.3,1.5,4.7,0.9,7.2c-0.7,2.5-2.1,4.5-4.2,5.9c-3.6,2.3-8.3,2.1-11.6-0.5C32.7,32.5,30.6,27.6,33.1,22.4z M50.2,27.1
		c0-4.5-3.6-8.2-8-8.2c-4.6,0-8.3,3.6-8.3,8.2c0,4.5,3.6,8.2,8.2,8.2C46.5,35.3,50.2,31.7,50.2,27.1z"/>
	<path id="XMLID_64_" class="st0" d="M46.5,44.8c-2.2,0-4.4,0-6.5,0c-0.3,0-0.7-0.1-0.9-0.3c-0.2-0.2-0.3-0.7-0.2-0.9
		c0.1-0.3,0.5-0.5,0.8-0.5c0.7-0.1,1.4,0,2.1,0c3.8,0,7.6,0,11.4,0c0.5,0,0.9,0.1,1.1,0.6c0.2,0.6-0.2,1.2-1,1.2
		C51.1,44.8,48.8,44.8,46.5,44.8C46.5,44.8,46.5,44.8,46.5,44.8z"/>
	<path id="XMLID_63_" class="st0" d="M46.5,51.7c-2.1,0-4.2,0-6.3,0c-0.2,0-0.3,0-0.5,0c-0.6,0-1-0.4-1-0.9c0-0.5,0.4-0.9,1-0.9
		c1.5,0,2.9,0,4.4,0c3,0,6,0,9,0c0.3,0,0.7,0.1,0.9,0.3c0.2,0.2,0.3,0.7,0.1,0.9c-0.1,0.3-0.5,0.5-0.9,0.5c-1.4,0.1-2.8,0-4.2,0
		C48.3,51.7,47.4,51.7,46.5,51.7z"/>
	<path id="XMLID_62_" class="st0" d="M46.6,56.8c2.2,0,4.4,0,6.6,0c0.7,0,1.1,0.3,1.1,0.9c0,0.6-0.4,0.9-1.1,0.9
		c-4.4,0-8.8,0-13.3,0c-0.8,0-1.3-0.5-1.1-1.1c0.1-0.5,0.5-0.7,1-0.7C42.1,56.8,44.4,56.8,46.6,56.8z"/>
	<path id="XMLID_60_" class="st0" d="M31.7,43.7c0.8-0.8,1.6-1.6,2.3-2.4c0.3-0.3,0.6-0.4,1-0.2c0.4,0.2,0.6,0.5,0.5,0.9
		c0,0.2-0.2,0.4-0.3,0.6c-0.9,0.9-1.8,1.8-2.7,2.7c-0.5,0.5-1,0.5-1.5,0c-0.6-0.6-1.2-1.2-1.7-1.7c-0.4-0.5-0.5-0.9-0.1-1.3
		c0.4-0.4,0.9-0.4,1.4,0.1C30.9,42.8,31.3,43.3,31.7,43.7z"/>
	<path id="XMLID_59_" class="st0" d="M31.7,50.6c0.8-0.8,1.5-1.5,2.2-2.2c0.5-0.5,1-0.6,1.4-0.2c0.4,0.4,0.4,0.9-0.1,1.4
		c-0.9,0.9-1.8,1.8-2.7,2.7c-0.5,0.5-1,0.5-1.5,0c-0.6-0.6-1.1-1.1-1.7-1.7c-0.5-0.5-0.5-1-0.1-1.4c0.4-0.4,0.9-0.3,1.3,0.1
		C30.9,49.7,31.3,50.1,31.7,50.6z"/>
	<path id="XMLID_3_" class="st0" d="M31.7,57.8c0.8-0.8,1.5-1.5,2.2-2.2c0.5-0.5,1-0.6,1.4-0.2c0.4,0.4,0.4,0.9-0.1,1.4
		c-0.9,0.9-1.8,1.8-2.7,2.7c-0.5,0.5-1,0.5-1.5,0c-0.6-0.6-1.1-1.1-1.7-1.7c-0.5-0.5-0.5-1-0.1-1.4c0.4-0.4,0.9-0.3,1.3,0.1
		C30.9,56.9,31.3,57.3,31.7,57.8z"/>
	<path id="XMLID_58_" class="st0" d="M41.1,26.2c0-1.2,0-2.3,0-3.4c0-0.7,0.4-1.2,0.9-1.1c0.5,0,0.9,0.5,0.9,1.1c0,1.1,0,2.1,0,3.2
		c0,0,0,0.1,0.1,0.2c0.3,0,0.6,0,0.9,0c0.9,0,1.7,0,2.6,0c0.6,0,1,0.4,1,0.9c0,0.5-0.4,0.8-1,0.8c-1.1,0-2.3,0-3.5,0
		c0,0.8,0,1.5,0,2.2c0,0.4,0,0.8,0,1.3c0,0.6-0.4,1-0.9,1c-0.5,0-0.9-0.4-0.9-1c0-1.1,0-2.3,0-3.5c-1.2,0-2.3,0-3.5,0
		c-0.4,0-0.8-0.1-0.9-0.5c-0.3-0.6,0.1-1.3,0.9-1.3c1,0,2,0,2.9,0C40.7,26.2,40.9,26.2,41.1,26.2z"/>
</g>
</svg>
