<?xml version="1.0" encoding="utf-8"?>
<!-- Generator: Adobe Illustrator 19.0.0, SVG Export Plug-In . SVG Version: 6.00 Build 0)  -->
<svg version="1.1" id="Layer_1" xmlns="http://www.w3.org/2000/svg" xmlns:xlink="http://www.w3.org/1999/xlink" x="0px" y="0px"
	 viewBox="0 0 16 16" style="enable-background:new 0 0 16 16;" xml:space="preserve">
<style type="text/css">
	.st0{fill:#676767;}
</style>
<path class="st0" d="M15.7,13.5l-2.9-2.9c-0.4-0.4-0.9-0.4-1.3-0.2l-0.5-0.5c0.8-1,1.3-2.4,1.3-3.8C12.2,2.7,9.5,0,6.1,0
	S0,2.7,0,6.1s2.7,6.1,6.1,6.1c1.4,0,2.7-0.5,3.8-1.3l0.5,0.5c-0.2,0.4-0.2,1,0.2,1.3l2.9,2.9c0.4,0.4,1.2,0.4,1.6,0l0.5-0.5
	C16.1,14.7,16.1,14,15.7,13.5z M1.1,6.1c0-2.8,2.2-5,5-5s5,2.2,5,5s-2.2,5-5,5S1.1,8.9,1.1,6.1z"/>
</svg>
