<?xml version="1.0" encoding="utf-8"?>
<!-- Generator: Adobe Illustrator 19.0.0, SVG Export Plug-In . SVG Version: 6.00 Build 0)  -->
<svg version="1.1" id="Layer_1" xmlns="http://www.w3.org/2000/svg" xmlns:xlink="http://www.w3.org/1999/xlink" x="0px" y="0px"
	 viewBox="0 0 40 40" style="enable-background:new 0 0 40 40;" xml:space="preserve">
<style type="text/css">
	.st0{fill:#21AB75;}
	.st1{fill:#FFFFFF;}
</style>
<circle id="XMLID_1_" class="st0" cx="20" cy="20" r="20"/>
<path id="XMLID_2_" class="st1" d="M30,19.7c0-0.9-0.7-1.7-1.7-1.7h-2.6H22c0.4-0.9,1.1-2.9,1.1-4.9c0-2.3-1.2-2.8-2.1-2.8
	c-0.6,0-1.5,0.5-1.5,1.3c0,0.3-0.1,3.4-1.9,5c-2,1.7-2.6,2.1-3.7,2.1c-1.3,0-3.6,0-3.6,0l-0.4,0v9h4.2c0.3,0,1.1,0.4,1.8,0.7
	c1.2,0.5,2.5,1.1,3.4,1.1h6v0c1,0,1.8-0.8,1.8-1.7c0-0.4-0.1-0.7-0.4-1c0.7-0.2,1.3-0.9,1.3-1.7c0-0.4-0.1-0.8-0.4-1
	c0.7-0.2,1.2-0.9,1.2-1.7c0-0.4-0.1-0.8-0.4-1C29.4,21.2,30,20.5,30,19.7z"/>
</svg>
